:FULLY-SPECIFIED
:FORCE-ALL-JOINTS-BE-3DOF
:DEGREES
544
root 7.52529 14.7941 -3.86586 -177.603 54.5143 -181.125
lfemur -29.4281 -5.86671 -20.3984
ltibia 77.1169 0 0
lfoot -35.614 0.685122 0
ltoes -7.4179 0 0
rfemur -47.2265 -4.18899 -2.82122
rtibia 52.3918 0 0
rfoot -0.231544 5.62205 0
rtoes -41.944 0 0
lowerback 12.0458 1.17284 0.721252
upperback 5.79681 2.48367 6.97421
thorax -0.947176 1.46485 6.58624
lowerneck -4.18951 -16.2826 -6.52588
upperneck 12.5725 -21.9885 6.68753
head 5.97311 -10.5552 1.41152
lclavicle 7.53446e-14 4.72682e-14 0
lhumerus -43.1819 -20.1935 107.501
lradius 59.4888 0 0
lwrist 23.7607 0 0
lhand -22.2807 -5.24041 0
lfingers 7.12502 0 0
lthumb 4.13773 24.6988 0
rclavicle 7.53446e-14 4.72682e-14 0
rhumerus 13.5545 11.3052 -84.636
rradius 138.166 0 0
rwrist -50.6588 0 0
rhand -30.6615 -24.9899 0
rfingers 7.12502 0 0
rthumb -3.95614 -774.925 0
545
root 7.51164 14.8448 -3.85659 -177.278 55.1738 -180.914
lfemur -29.0308 -5.77323 -20.3588
ltibia 76.0813 0 0
lfoot -35.5174 0.972044 0
ltoes -6.98258 0 0
rfemur -47.3716 -4.44702 -2.28539
rtibia 52.1504 0 0
rfoot 0.0938161 5.58721 0
rtoes -41.6214 0 0
lowerback 11.8803 1.11164 0.629245
upperback 5.68827 2.37322 6.86444
thorax -0.957452 1.40325 6.53428
lowerneck -4.22397 -16.1929 -6.44659
upperneck 12.4927 -21.8686 6.63769
head 5.93319 -10.5001 1.40008
lclavicle 7.3084e-14 4.54066e-14 0
lhumerus -43.1283 -20.0673 107.064
lradius 59.3543 0 0
lwrist 23.7108 0 0
lhand -22.2494 -5.21327 0
lfingers 7.12502 0 0
lthumb 4.16793 24.7253 0
rclavicle 7.3084e-14 4.54066e-14 0
rhumerus 14.0442 11.4426 -84.2852
rradius 138.027 0 0
rwrist -50.4937 0 0
rhand -30.5097 -24.8777 0
rfingers 7.12502 0 0
rthumb -3.80949 -774.814 0
546
root 7.49718 14.8984 -3.84677 -176.933 55.8724 -180.691
lfemur -28.61 -5.67421 -20.3168
ltibia 74.9843 0 0
lfoot -35.415 1.27599 0
ltoes -6.52143 0 0
rfemur -47.5254 -4.72036 -1.71776
rtibia 51.8946 0 0
rfoot 0.438485 5.5503 0
rtoes -41.2798 0 0
lowerback 11.7049 1.0468 0.531779
upperback 5.57329 2.25622 6.74815
thorax -0.968338 1.33799 6.47923
lowerneck -4.26047 -16.0979 -6.3626
upperneck 12.4083 -21.7416 6.58488
head 5.89091 -10.4418 1.38796
lclavicle 7.06893e-14 4.34344e-14 0
lhumerus -43.0716 -19.9336 106.602
lradius 59.2118 0 0
lwrist 23.6579 0 0
lhand -22.2163 -5.18453 0
lfingers 7.12502 0 0
lthumb 4.19993 24.7533 0
rclavicle 7.06893e-14 4.34344e-14 0
rhumerus 14.563 11.5881 -83.9136
rradius 137.88 0 0
rwrist -50.3188 0 0
rhand -30.3488 -24.759 0
rfingers 7.12502 0 0
rthumb -3.65414 -774.697 0
547
root 7.482 14.9548 -3.83646 -176.571 56.606 -180.457
lfemur -28.1681 -5.57023 -20.2728
ltibia 73.8323 0 0
lfoot -35.3075 1.59518 0
ltoes -6.03717 0 0
rfemur -47.6868 -5.00741 -1.12168
rtibia 51.6261 0 0
rfoot 0.80043 5.51154 0
rtoes -40.921 0 0
lowerback 11.5207 0.97872 0.429428
upperback 5.45255 2.13335 6.62604
thorax -0.97977 1.26946 6.42142
lowerneck -4.2988 -15.9981 -6.2744
upperneck 12.3196 -21.6083 6.52943
head 5.84651 -10.3806 1.37523
lclavicle 6.81745e-14 4.13635e-14 0
lhumerus -43.012 -19.7932 106.116
lradius 59.0621 0 0
lwrist 23.6023 0 0
lhand -22.1815 -5.15434 0
lfingers 7.12502 0 0
lthumb 4.23353 24.7828 0
rclavicle 6.81745e-14 4.13635e-14 0
rhumerus 15.1078 11.741 -83.5234
rradius 137.725 0 0
rwrist -50.1351 0 0
rhand -30.1799 -24.6342 0
rfingers 7.12502 0 0
rthumb -3.49101 -774.573 0
548
root 7.46617 15.0135 -3.82571 -176.194 57.3705 -180.212
lfemur -27.7076 -5.46186 -20.2268
ltibia 72.6318 0 0
lfoot -35.1954 1.9278 0
ltoes -5.53251 0 0
rfemur -47.855 -5.30654 -0.500501
rtibia 51.3462 0 0
rfoot 1.17762 5.47115 0
rtoes -40.547 0 0
lowerback 11.3288 0.907768 0.322765
upperback 5.32673 2.0053 6.49879
thorax -0.991683 1.19805 6.36119
lowerneck -4.33875 -15.8942 -6.18248
upperneck 12.2271 -21.4694 6.47165
head 5.80023 -10.3168 1.36196
lclavicle 6.55538e-14 3.92053e-14 0
lhumerus -42.9498 -19.6468 105.61
lradius 58.9062 0 0
lwrist 23.5444 0 0
lhand -22.1452 -5.12288 0
lfingers 7.12502 0 0
lthumb 4.26854 24.8135 0
rclavicle 6.55538e-14 3.92053e-14 0
rhumerus 15.6756 11.9002 -83.1167
rradius 137.564 0 0
rwrist -49.9437 0 0
rhand -30.0038 -24.5042 0
rfingers 7.12502 0 0
rthumb -3.321 -774.445 0
549
root 7.4498 15.0743 -3.81459 -175.804 58.1618 -179.959
lfemur -27.2309 -5.3497 -20.1793
ltibia 71.3893 0 0
lfoot -35.0794 2.27208 0
ltoes -5.01017 0 0
rfemur -48.0292 -5.61615 0.14244
rtibia 51.0566 0 0
rfoot 1.56802 5.42935 0
rtoes -40.16 0 0
lowerback 11.1302 0.83433 0.212368
upperback 5.1965 1.87277 6.36707
thorax -1.00401 1.12413 6.29884
lowerneck -4.3801 -15.7865 -6.08734
upperneck 12.1315 -21.3256 6.41184
head 5.75234 -10.2508 1.34823
lclavicle 6.28414e-14 3.69715e-14 0
lhumerus -42.8855 -19.4954 105.086
lradius 58.7448 0 0
lwrist 23.4844 0 0
lhand -22.1077 -5.09032 0
lfingers 7.12502 0 0
lthumb 4.30478 24.8453 0
rclavicle 6.28414e-14 3.69715e-14 0
rhumerus 16.2632 12.0651 -82.6958
rradius 137.397 0 0
rwrist -49.7456 0 0
rhand -29.8216 -24.3697 0
rfingers 7.12502 0 0
rthumb -3.14504 -774.312 0
